<svg width="22" height="22"  viewBox="0 0 22 22" fill="none" xmlns="http://www.w3.org/2000/svg">
    <defs>
        <clipPath>
            <path fill-rule="nonzero"  d="M14 13.5C14 15.43 12.43 17 10.5 17C8.57 17 7 15.43 7 13.5V5.5C7 3.57 8.57 2 10.5 2C12.43 2 14 3.57 14 5.5V13.5Z" fill="#171B1F"/>
        </clipPath>
        <clipPath id="clipInner">
            <path d="M6.5 11H14.5V14C14.5 16.2091 12.7091 18 10.5 18C8.29086 18 6.5 16.2091 6.5 14V11Z" fill="#44CF50"/>
            <rect x="6.5" y="9" width="8" height="1" fill="#44CF50"/>
            <rect x="6.5" y="7" width="8" height="1" fill="#44CF50"/>
            <rect x="6.5" y="5" width="8" height="1" fill="#44CF50"/>
            <path d="M7 4C7 3.44772 7.44772 3 8 3H13C13.5523 3 14 3.44772 14 4H7Z" fill="#44CF50"/>
        </clipPath>
    </defs>
    <g clip-path="url(#clipOut)">
        <rect id='rectBackground' clip-path="url(#clipInner)" x='7' y='12' width='7' height='15' fill="#44CF50">
            <animate attributeName="y" calcMode="linear" 
                values="12;15;9;11;13;4;8;15;9;13;12" 
                keyTimes="0;0.07;0.23;0.26;0.34;0.47;0.58;0.74;0.88;0.96;1" 
                dur="3" begin="0s" repeatCount="indefinite"></animate>
        </rect>
    </g>
    <path fill-rule="nonzero"  d="M14 13.5C14 15.43 12.43 17 10.5 17C8.57 17 7 15.43 7 13.5V5.5C7 3.57 8.57 2 10.5 2C12.43 2 14 3.57 14 5.5V13.5ZM6 5.5V13.5C6 15.815 7.755 17.699 10.003 17.95C10.003 17.956 10 20 10 20H8C7.725 20 7.5 20.224 7.5 20.5C7.5 20.776 7.725 21 8 21H13C13.276 21 13.5 20.776 13.5 20.5C13.5 20.224 13.276 20 13 20H11V17.967C13.245 17.699 15 15.815 15 13.5V5.5C15 3.015 12.985 1 10.5 1C8.015 1 6 3.015 6 5.5Z" fill="#171B1F"/>
</svg> 